<?xml version="1.0" standalone="no"?>
<!DOCTYPE svg PUBLIC "-//W3C//DTD SVG 20010904//EN"
 "http://www.w3.org/TR/2001/REC-SVG-20010904/DTD/svg10.dtd">
<svg version="1.0" xmlns="http://www.w3.org/2000/svg"
 width="661.000000pt" height="602.000000pt" viewBox="0 0 661.000000 602.000000"
 preserveAspectRatio="xMidYMid meet">

<g transform="translate(0.000000,602.000000) scale(0.100000,-0.100000)"
fill="#000000" stroke="none">
<path d="M5421 4359 c-2 -36 -83 -181 -153 -274 -257 -343 -574 -592 -899
-707 -91 -32 -93 -33 -54 -36 117 -10 393 36 556 91 284 98 466 287 539 562
24 92 37 280 22 340 -6 22 -10 33 -11 24z"/>
<path d="M5725 4032 c-94 -237 -244 -496 -357 -617 -61 -66 -237 -190 -343
-243 -153 -76 -344 -112 -592 -112 -256 0 -365 25 -883 205 -338 117 -525 192
-866 346 -300 134 -366 161 -485 193 -140 37 -284 56 -474 63 -144 5 -188 2
-291 -15 -201 -35 -410 -112 -639 -235 -136 -74 -373 -232 -363 -243 2 -2 60
22 129 52 164 74 385 147 544 180 111 24 155 28 300 28 163 1 177 -1 335 -37
366 -86 484 -128 914 -332 291 -137 422 -192 661 -277 602 -212 1000 -277
1310 -213 212 44 512 180 663 301 190 152 341 408 422 714 29 111 66 327 58
336 -3 2 -22 -40 -43 -94z"/>
<path d="M1115 3374 c-114 -13 -302 -51 -293 -59 2 -3 98 -20 214 -40 386 -66
526 -101 814 -208 189 -70 402 -170 795 -375 266 -139 491 -219 735 -264 157
-29 463 -31 595 -5 98 20 255 69 295 92 23 13 20 14 -50 15 -41 0 -134 7 -205
15 -529 62 -1116 256 -1718 569 -361 188 -603 254 -962 261 -99 1 -198 1 -220
-1z"/>
<path d="M933 2118 c-10 -14 -373 -833 -373 -842 0 -3 13 -6 28 -6 26 0 31 8
77 113 l50 112 230 0 230 0 50 -112 c47 -105 52 -113 78 -113 23 0 27 3 22 19
-16 51 -365 836 -373 839 -5 1 -13 -3 -19 -10z m121 -337 c53 -124 94 -226 92
-228 -2 -2 -93 -2 -204 -1 l-200 3 29 70 c117 275 173 395 180 388 4 -4 51
-109 103 -232z"/>
<path d="M2445 2109 c-14 -21 -163 -824 -156 -832 5 -5 26 -7 47 -5 l38 3 52
307 c28 170 53 310 55 313 3 2 43 -102 88 -233 152 -432 139 -402 171 -402 27
0 29 4 135 313 59 171 111 315 115 320 3 4 30 -131 59 -300 29 -170 55 -311
58 -315 2 -5 22 -8 44 -8 34 0 39 3 39 23 0 27 -149 807 -156 819 -3 4 -16 8
-29 8 -25 0 -11 35 -181 -447 -43 -123 -81 -223 -84 -223 -3 0 -54 139 -114
308 -60 169 -115 319 -123 335 -14 27 -46 37 -58 16z"/>
<path d="M4512 2074 c-41 -28 -18 -104 31 -104 22 0 57 35 57 58 0 44 -52 72
-88 46z"/>
<path d="M1437 2059 c-24 -14 -22 -56 4 -70 18 -9 25 -7 42 9 11 11 17 27 14
36 -9 23 -40 36 -60 25z"/>
<path d="M4813 1903 c-21 -4 -23 -10 -23 -79 l0 -74 -40 0 c-34 0 -41 -4 -46
-24 -9 -36 2 -46 47 -46 l39 0 0 -175 c0 -230 7 -245 111 -245 54 0 149 35
149 54 0 6 -9 22 -19 35 -17 22 -19 23 -49 7 -41 -21 -98 -21 -106 0 -3 9 -6
85 -6 170 l0 154 81 0 80 0 -3 33 -3 32 -77 3 -77 3 -3 77 c-3 81 -6 85 -55
75z"/>
<path d="M1778 1740 c-20 -11 -40 -24 -43 -30 -11 -17 -23 -11 -27 12 -2 13
-11 24 -20 26 -17 3 -18 -13 -18 -237 l0 -241 25 0 25 0 2 186 3 187 38 31
c31 25 48 31 85 31 26 0 57 -4 69 -8 17 -6 23 -3 28 14 10 31 -8 42 -72 46
-44 2 -67 -2 -95 -17z"/>
<path d="M3432 1734 c-87 -43 -132 -121 -132 -226 0 -145 98 -248 235 -248
133 0 233 105 235 246 1 187 -178 308 -338 228z m179 -77 c94 -63 105 -199 24
-279 -66 -66 -171 -54 -223 25 -36 54 -39 159 -6 204 54 73 140 94 205 50z"/>
<path d="M4068 1746 c-20 -8 -47 -22 -61 -31 -24 -15 -25 -15 -31 10 -5 21
-12 26 -34 23 l-27 -3 0 -235 0 -235 35 0 35 0 3 169 c3 188 0 179 77 216 56
27 117 26 150 -2 36 -31 44 -79 45 -246 l0 -143 38 3 37 3 3 135 c5 216 -8
270 -81 324 -34 25 -136 32 -189 12z"/>
<path d="M5290 1747 c-56 -18 -125 -93 -144 -156 -20 -68 -20 -94 0 -160 18
-62 73 -127 129 -152 52 -24 138 -24 190 0 78 35 145 142 145 231 0 62 -31
134 -79 180 -67 65 -152 85 -241 57z m167 -95 c41 -29 67 -86 66 -147 -2 -208
-268 -231 -307 -26 -7 40 9 105 35 142 43 60 144 75 206 31z"/>
<path d="M5890 1749 c-14 -6 -34 -19 -46 -30 -21 -19 -21 -19 -32 6 -12 27
-40 33 -60 13 -14 -14 -17 -434 -3 -456 5 -8 22 -12 42 -10 l34 3 5 178 c5
191 2 180 64 214 22 11 44 14 82 9 51 -6 52 -5 65 25 11 28 10 33 -6 45 -22
16 -108 17 -145 3z"/>
<path d="M1437 1743 c-4 -3 -7 -111 -7 -240 l0 -233 25 0 25 0 0 240 c0 226
-1 240 -18 240 -10 0 -22 -3 -25 -7z"/>
<path d="M4505 1728 c-3 -13 -4 -120 -3 -238 l3 -215 34 -3 c20 -2 37 2 42 10
14 22 11 442 -3 456 -7 7 -25 12 -40 12 -20 0 -29 -6 -33 -22z"/>
</g>
</svg>
